<?xml version="1.0" encoding="UTF-8" standalone="no"?>
<!-- Created with Inkscape (http://www.inkscape.org/) -->

<svg
   xmlns:dc="http://purl.org/dc/elements/1.1/"
   xmlns:cc="http://creativecommons.org/ns#"
   xmlns:rdf="http://www.w3.org/1999/02/22-rdf-syntax-ns#"
   xmlns:svg="http://www.w3.org/2000/svg"
   xmlns="http://www.w3.org/2000/svg"
   version="1.1"
   width="40.310001"
   height="45.539135"
   id="svg2">
  <defs
     id="defs4" />
  <metadata
     id="metadata7">
    <rdf:RDF>
      <cc:Work
         rdf:about="">
        <dc:format>image/svg+xml</dc:format>
        <dc:type
           rdf:resource="http://purl.org/dc/dcmitype/StillImage" />
        <dc:title></dc:title>
      </cc:Work>
    </rdf:RDF>
  </metadata>
  <g
     transform="translate(-260.87975,-345.59506)"
     id="layer1">
    <g
       transform="translate(-104.55079,4.5456865)"
       id="g3080">
      <path
         d="m 365.9103,385.76896 c -0.85229,-0.61039 -0.57298,-0.75127 0.86971,-0.43866 1.98057,0.42915 2.0354,0.28739 0.80564,-2.08296 -1.61231,-3.10774 -0.41136,-5.88074 3.12997,-7.22716 1.34156,-0.51006 2.4392,-1.67381 2.4392,-2.58611 0,-2.78275 2.24941,-9.35466 3.03557,-8.86878 0.40624,0.25106 0.67693,-0.31532 0.60152,-1.25863 -0.0754,-0.94331 0.38791,-1.72597 1.02958,-1.73924 0.64166,-0.0133 1.54166,-0.43377 2,-0.93445 0.48416,-0.52889 0.30957,-0.60891 -0.41667,-0.19098 -1.77933,1.02396 -1.5517,-0.90342 0.28692,-2.42933 0.84531,-0.70155 1.41101,-2.01881 1.2571,-2.92726 -0.1539,-0.90845 0.56029,-2.9339 1.58709,-4.501 1.60229,-2.4454 1.99561,-2.61932 2.77481,-1.22696 1.07102,1.91379 7.63438,5.2289 8.5465,4.31677 0.347,-0.347 0.0644,-0.63091 -0.62802,-0.63091 -0.69242,0 -2.32941,-0.84203 -3.63776,-1.87118 -2.37438,-1.86768 -2.37507,-1.87456 -0.37246,-3.6869 1.10349,-0.99865 1.76038,-2.45672 1.45975,-3.24016 -0.37394,-0.97448 -0.0572,-1.23665 1.00258,-0.82996 0.88745,0.34055 1.79231,-0.039 2.11833,-0.88866 0.60674,-1.58113 3.89544,-2.03599 4.7479,-0.65668 0.74258,1.20152 -0.46156,5.17354 -1.56839,5.17354 -0.51831,0 -0.66427,-0.45 -0.32435,-1 0.33992,-0.55 -0.30852,-1 -1.44098,-1 -1.13246,0 -2.05902,0.47656 -2.05902,1.05902 0,0.58246 0.5625,0.72107 1.25,0.30804 1.36828,-0.82204 -1.07323,2.62534 -2.75,3.88296 -0.57471,0.43105 -0.0225,1.01765 1.29842,1.3793 3.40751,0.93292 2.40846,3.87068 -1.31631,3.87068 -1.64016,0 -3.7423,-0.33872 -4.67142,-0.7527 -0.92912,-0.41399 -1.93656,-0.35265 -2.23875,0.13631 -0.60738,0.98274 2.65182,2.08153 6.23708,2.10273 1.51564,0.009 2.09145,0.44316 1.67584,1.26366 -0.34825,0.6875 0.0523,0.40773 0.89021,-0.6217 1.48824,-1.82851 1.59957,-1.82812 4.82416,0.0168 4.55328,2.60507 8.15438,9.95308 7.24733,14.78807 -0.84308,4.494 -4.24193,9.6565 -7.39133,11.22664 -2.35042,1.17181 -2.33559,1.19491 1.03001,1.60453 1.87812,0.22859 -0.52274,0.48763 -5.33524,0.57565 -4.8125,0.088 -8.75,-0.21773 -8.75,-0.67945 0,-0.46171 -1.12603,-1.35254 -2.5023,-1.9796 -3.61077,-1.64518 -6.47332,-6.93458 -6.59214,-12.18091 l -0.10191,-4.5 -1.24783,4.5 c -1.05113,3.79063 -1.01685,4.76965 0.21746,6.21055 0.87342,1.01961 1.28511,2.93828 1.0192,4.75 -0.2968,2.02222 -0.0218,3.03945 0.8217,3.03945 0.69728,0 1.47286,0.3375 1.72351,0.75 0.65352,1.07551 -11.07818,1.05281 -12.58221,-0.0243 z m 8.81074,-3.93429 c 0.34785,-1.09599 0.13775,-2.4874 -0.46688,-3.09203 -0.79912,-0.79912 -1.09934,-0.49854 -1.09934,1.10066 0,1.28889 -0.62121,2.2 -1.5,2.2 -1.81035,0 -2.01237,-2.65034 -0.25,-3.27976 0.6875,-0.24554 0.92337,-0.79716 0.52417,-1.22584 -1.01964,-1.09489 -3.77417,1.40703 -3.77417,3.42804 0,4.06418 5.32829,4.76928 6.56622,0.86893 z m 21.944,0.76881 c 8.68458,-3.62865 9.99506,-17.90688 2.11728,-23.0686 -3.19692,-2.0947 -4.22394,-1.45626 -5.09084,3.1647 -0.52905,2.82005 -0.32216,3.88426 0.88664,4.56073 2.05198,1.14835 2.02512,2.78299 -0.0457,2.78299 -1.39808,0 -1.43265,0.23397 -0.25,1.69196 0.93256,1.14966 0.97181,1.45126 0.12245,0.94098 -0.6875,-0.41304 -1.25351,-0.38692 -1.2578,0.058 -0.0114,1.184 -4.655,3.14193 -5.74653,2.42298 -0.51268,-0.33768 -1.00371,-2.63531 -1.09118,-5.10586 -0.23858,-6.73803 -1.89954,-11.03969 -3.96413,-10.2666 -1.52943,0.5727 -1.54756,0.44853 -0.19036,-1.30427 1.39261,-1.79854 1.37298,-1.83754 -0.27417,-0.54473 -0.97579,0.76588 -1.57668,1.58998 -1.33531,1.83135 0.24137,0.24137 -0.41288,2.31475 -1.45387,4.6075 -2.41,5.30792 -2.42221,9.41217 -0.0388,13.02735 4.10605,6.22802 10.57971,8.13989 17.61233,5.20148 z m -1.94593,-5.26705 c -0.54268,-1.4252 -0.42782,-1.54006 0.5598,-0.5598 0.68342,0.67834 0.99067,1.48524 0.68278,1.79313 -0.30789,0.30789 -0.86705,-0.24711 -1.24258,-1.23333 z m -12.56429,-0.68614 c 0,-0.21616 0.69837,-0.661 1.55194,-0.98855 0.88992,-0.34149 1.29132,-0.17385 0.94098,0.39301 -0.58726,0.95021 -2.49292,1.40545 -2.49292,0.59554 z m 14.50708,-1.59554 c -0.35034,-0.56686 0.0511,-0.7345 0.94098,-0.39301 1.73242,0.66479 2.04939,1.38156 0.61096,1.38156 -0.51754,0 -1.21592,-0.44485 -1.55194,-0.98855 z m -13.69458,-2.69456 c 0.72187,-0.28888 1.58437,-0.25335 1.91667,0.079 0.33229,0.33229 -0.25834,0.56864 -1.3125,0.52522 -1.16495,-0.048 -1.4019,-0.28495 -0.60417,-0.60417 z m 5.14855,-10.4527 c -0.97243,-3.39067 -1.68486,-4.47372 -2.44366,-3.71491 -0.64963,0.64962 1.73283,6.85072 2.63204,6.85072 0.39103,0 0.30626,-1.41112 -0.18838,-3.13581 z m 2.33763,0.47176 c -0.44681,-1.16435 -0.26507,-1.43321 0.60521,-0.89535 0.92626,0.57246 0.90582,0.22284 -0.0801,-1.36961 -1.07588,-1.73779 -1.38649,-1.8401 -1.6584,-0.54623 -0.35546,1.69146 0.43565,4.47524 1.2718,4.47524 0.275,0 0.21265,-0.74882 -0.13855,-1.66405 z m -6.00099,-11.00256 c -0.46859,-1.22112 -0.73371,-1.25231 -1.42154,-0.16724 -1.26394,1.99392 -1.05071,2.83806 0.56071,2.21971 0.79027,-0.30326 1.17765,-1.22687 0.86083,-2.05247 z m -3.54769,34.00433 c 0.6875,-0.27741 1.8125,-0.27741 2.5,0 0.6875,0.27741 0.125,0.50438 -1.25,0.50438 -1.375,0 -1.9375,-0.22697 -1.25,-0.50438 z m 5.25,-38.73073 c 0,-0.76616 0.68541,-1.65603 1.52314,-1.9775 1.24266,-0.47685 1.32825,-0.22033 0.46481,1.39302 -1.24059,2.31806 -1.98795,2.53779 -1.98795,0.58448 z"
         id="path3094"
         style="fill:#b9b9b9;fill-opacity:1" />
      <path
         d="m 367.82465,386.15919 c -0.89097,-1.94287 -0.65553,-7.42819 0.37197,-8.66625 1.45948,-1.75857 5.11427,-1.89357 6.7582,-0.24964 1.52892,1.52892 1.48962,4.83919 -0.0818,6.88924 -1.24268,1.62118 -6.5363,3.14328 -7.04837,2.02665 z m 5.74778,-2.43199 c 0.98993,-0.72385 1.63844,-2.09762 1.44113,-3.05282 -0.40184,-1.94539 -2.43711,-1.83636 -2.21985,0.11892 0.0764,0.6875 -0.48611,1.25 -1.25,1.25 -1.72823,0 -1.84137,-2.67173 -0.13889,-3.27976 0.6875,-0.24554 0.92337,-0.79716 0.52417,-1.22584 -1.01964,-1.09489 -3.77417,1.40703 -3.77417,3.42804 0,1.64033 1.79846,4.07756 3.00887,4.07756 0.33488,0 1.41881,-0.59224 2.40874,-1.3161 z m 8.39489,1.63299 c 0.72187,-0.28888 1.58437,-0.25335 1.91667,0.079 0.33229,0.33229 -0.25834,0.56864 -1.3125,0.52522 -1.16495,-0.048 -1.4019,-0.28495 -0.60417,-0.60417 z m 0.57581,-2.32045 c -2.26142,-1.60291 -4.60642,-4.17035 -5.21109,-5.70541 -1.60043,-4.06293 -1.85184,-13.56616 -0.37194,-14.05946 0.66395,-0.22131 0.98999,-0.75382 0.72453,-1.18333 -0.26546,-0.42952 0.40674,-1.58583 1.49377,-2.56958 1.08703,-0.98375 1.97642,-3.04233 1.97642,-4.57463 0,-1.5323 0.44485,-3.06093 0.98855,-3.39695 0.5684,-0.35129 0.73358,0.0535 0.38865,0.95232 -0.41743,1.08781 -0.15488,1.39252 0.86321,1.00184 0.94507,-0.36266 1.31701,-1.51737 1.05051,-3.26134 -0.34062,-2.22899 -0.22545,-2.40639 0.66032,-1.01712 1.18639,1.86078 6.56348,4.81722 8.76141,4.81722 0.77296,0 1.15489,0.40531 0.84872,0.9007 -0.58132,0.94059 -6.79379,0.69173 -8.46147,-0.33896 -0.52894,-0.3269 -1.23898,-0.14573 -1.57786,0.4026 -0.35134,0.56848 1.12323,1.27511 3.4309,1.64412 2.22588,0.35594 4.04706,1.03964 4.04706,1.51935 0,0.4797 0.45,0.87219 1,0.87219 0.55,0 1,-0.675 1,-1.5 0,-1.98231 0.84879,-1.88956 4.81018,0.52563 6.21243,3.78762 8.24808,14.63881 3.93982,21.00157 -4.97289,7.34433 -13.30775,8.96911 -20.36169,3.96924 z m 14.70557,-0.54499 c 8.22962,-4.2557 9.14582,-17.97216 1.53362,-22.95987 -3.19459,-2.09317 -4.37167,-1.37218 -5.23009,3.20358 -0.53959,2.87625 -0.30156,3.90176 1.1524,4.96492 1.74646,1.27704 1.74807,1.33992 0.0343,1.33992 -1.09252,0 -1.59624,0.5261 -1.28365,1.34068 0.8169,2.1288 -0.72791,3.7195 -3.83428,3.9482 -2.73037,0.20101 -2.87111,0.008 -2.93905,-4.03888 -0.0693,-4.12712 0.78475,-5.54222 1.81056,-3 0.27741,0.6875 0.53991,0.21094 0.58333,-1.05902 0.0434,-1.26996 0.49655,-2.05092 1.00695,-1.73548 1.71279,1.05856 2.27926,-3.39109 0.64036,-5.03 -1.42448,-1.42448 -1.57418,-1.35539 -1.63175,0.75307 l -0.0634,2.32143 -0.90439,-2.25 c -0.85367,-2.12382 -2.96884,-3.166 -2.96884,-1.4628 0,0.43295 -0.93402,0.85755 -2.07559,0.94354 -1.70105,0.12814 -1.85941,-0.10414 -0.87756,-1.28719 2.0948,-2.52408 0.40076,-1.55221 -2.12254,1.2177 -1.33337,1.46369 -1.86181,2.33713 -1.17431,1.94098 1.61295,-0.9294 1.57469,-0.45341 -0.24384,3.03346 -5.95688,11.4218 6.97793,23.81942 18.58772,17.81576 z m -11.47034,-18.99011 c -0.96498,-2.51469 -0.68031,-3.16355 0.49853,-1.13634 0.58369,1.00375 0.8506,2.03566 0.59313,2.29313 -0.25747,0.25747 -0.74872,-0.26309 -1.09166,-1.15679 z m 6.37646,7.53866 c 0,-0.55 -0.7875,-0.99311 -1.75,-0.98469 -1.49555,0.0131 -1.5319,0.15626 -0.25,0.98469 1.88721,1.21961 2,1.21961 2,0 z m 5.8125,14.31689 c 0.72187,-0.28888 1.58437,-0.25335 1.91667,0.079 0.33229,0.33229 -0.25834,0.56864 -1.3125,0.52522 -1.16495,-0.048 -1.4019,-0.28495 -0.60417,-0.60417 z M 373.31271,373.0433 c 0,-1.375 0.22698,-1.9375 0.50439,-1.25 0.27741,0.6875 0.27741,1.8125 0,2.5 -0.27741,0.6875 -0.50439,0.125 -0.50439,-1.25 z m 0.92106,-4.58333 c 0.048,-1.16495 0.28494,-1.4019 0.60416,-0.60417 0.28887,0.72187 0.25335,1.58437 -0.0789,1.91667 -0.33229,0.33229 -0.56864,-0.25834 -0.52522,-1.3125 z m 15.42105,-17.41667 c -1.72598,-1.90718 -1.72862,-2.08989 -0.057,-3.93699 0.96412,-1.06534 1.45731,-2.41534 1.09597,-3 -0.36133,-0.58465 -0.22856,-1.06301 0.29505,-1.06301 1.32152,0 2.3202,2.93409 1.4773,4.34024 -0.38237,0.63787 0.17867,0.49838 1.24675,-0.30998 1.30918,-0.99083 1.15933,-0.59132 -0.45986,1.22606 l -2.40183,2.6958 2.40183,0.96055 c 2.21804,0.88706 2.24152,0.96541 0.30681,1.02394 -1.15226,0.0349 -2.9095,-0.83661 -3.90499,-1.93661 z m -3.5,-4.37756 c 0,-0.20765 0.7875,-0.99515 1.75,-1.75 1.58606,-1.24387 1.62143,-1.2085 0.37755,0.37756 -1.30636,1.66575 -2.12755,2.19548 -2.12755,1.37244 z m 10.57654,-0.79948 c 0.45359,-1.30828 0.1243,-1.55749 -1.49755,-1.13337 -2.19579,0.57422 -2.60919,-0.30463 -1.19385,-2.53798 0.95072,-1.50021 4.25585,-1.23222 4.79547,0.38883 0.19049,0.57224 -0.33582,1.92224 -1.16959,3 -1.14452,1.47947 -1.37347,1.54869 -0.93448,0.28252 z"
         id="path3092"
         style="fill:#a3a3a3;fill-opacity:1" />
      <path
         d="m 368.22516,383.67474 c -1.54963,-2.89551 -1.12737,-5.56631 1.102,-6.97016 2.51057,-1.58091 6.83615,0.68967 6.79586,3.56728 -0.0755,5.39139 -5.56729,7.75759 -7.89786,3.40288 z m 5.72966,0.16856 c 1.66988,-1.66988 1.49734,-4.30834 -0.38382,-5.86957 -3.11745,-2.58725 -7.02399,2.42735 -4.37631,5.61761 1.46542,1.76572 3.15684,1.85525 4.76013,0.25196 z m -3.3,-2.8 c -0.33992,-0.55 -0.16803,-1 0.38197,-1 0.55,0 1.27811,0.45 1.61803,1 0.33992,0.55 0.16803,1 -0.38197,1 -0.55,0 -1.27811,-0.45 -1.61803,-1 z m 12.32801,2.21298 c -5.51305,-4.0732 -7.00044,-7.23142 -6.65819,-14.13741 0.16637,-3.35684 0.69807,-5.65722 1.23142,-5.32759 0.51625,0.31906 0.66751,-0.12643 0.33614,-0.98998 -0.34654,-0.90307 0.21851,-2.31309 1.33006,-3.31903 1.06291,-0.96192 1.93256,-3.00264 1.93256,-4.53494 0,-1.5323 0.44485,-3.06093 0.98855,-3.39695 0.56686,-0.35034 0.7345,0.0511 0.39301,0.94098 -0.38017,0.99069 -0.0357,1.55194 0.95243,1.55194 2.00027,0 3.05787,-1.69373 1.42224,-2.27769 -0.69093,-0.24667 -0.97168,-0.75716 -0.62389,-1.13441 0.64909,-0.70408 3.52032,0.73748 12.51422,6.28303 5.98424,3.68983 8.42648,7.94639 8.1934,14.2802 -0.14467,3.93123 -0.1946,4.01275 -0.51994,0.84887 -0.19795,-1.925 -0.5758,-4.47782 -0.83967,-5.67293 -0.69475,-3.1466 -5.35191,-8.32707 -7.48591,-8.32707 -1.00528,0 -1.98571,-0.47381 -2.17874,-1.0529 -0.49247,-1.4774 -8.09126,-3.07154 -9.22706,-1.93574 -0.55082,0.55082 0.73111,1.17604 3.23094,1.57578 2.27924,0.36447 3.91778,1.0288 3.64121,1.4763 -0.27657,0.4475 0.23896,1.22878 1.14562,1.73617 1.30221,0.72875 1.41804,1.3193 0.55144,2.81146 -1.04494,1.79923 -1.09848,1.78789 -1.12744,-0.23862 -0.0353,-2.46676 -2.46281,-4.84128 -3.98661,-3.89952 -0.57409,0.35481 -1.0438,0.15699 -1.0438,-0.43959 0,-2.03012 -5.75773,1.83859 -7.90346,5.31045 -3.79852,6.14614 -2.17349,14.37552 3.63837,18.42527 6.11645,4.26199 11.63381,3.70263 17.37816,-1.76184 4.0849,-3.88587 4.9474,-3.96627 2.32085,-0.21634 -2.12969,3.04056 -8.6373,6.21719 -12.64408,6.1721 -1.96303,-0.0221 -4.77078,-1.13119 -6.96183,-2.75 z m -1.82801,-23.71298 c 1.29174,-1.375 2.12363,-2.5 1.84863,-2.5 -0.275,0 -1.55689,1.125 -2.84863,2.5 -1.29175,1.375 -2.12363,2.5 -1.84863,2.5 0.275,0 1.55688,-1.125 2.84863,-2.5 z m 5.44069,14.40404 c -0.37254,-0.60278 0.11479,-1.84028 1.08296,-2.75 1.63827,-1.53939 1.72002,-1.53809 1.17936,0.0187 -0.46904,1.35055 -0.063,1.59007 2.10803,1.24364 2.56846,-0.40984 2.60197,-0.36156 0.74783,1.07729 -2.29281,1.77927 -4.17871,1.93049 -5.11818,0.4104 z m 4.22913,-4.3928 c -1.04239,-0.76832 -1.68806,-2.26684 -1.5,-3.48132 0.32749,-2.11497 0.35822,-2.11156 3.77446,0.41887 2.14272,1.58713 2.83552,2.55121 1.83333,2.55121 -0.88602,0 -1.76094,0.41855 -1.94428,0.93011 -0.18333,0.51157 -1.15691,0.32307 -2.16351,-0.41887 z m 1.08018,-17.17352 c 0.6875,-0.27741 1.8125,-0.27741 2.5,0 0.6875,0.27741 0.125,0.50438 -1.25,0.50438 -1.375,0 -1.9375,-0.22697 -1.25,-0.50438 z m -3.10231,-2.09875 c -0.90789,-1.469 2.20801,-4.50832 3.94038,-3.84355 1.56241,0.59956 1.55468,0.78936 -0.10694,2.62543 -1.89682,2.09596 -3.06206,2.46623 -3.83344,1.21812 z m 3.35231,-1.73897 c 0.71755,-0.86459 0.81474,-1.5 0.22943,-1.5 -0.5585,0 -1.27447,0.675 -1.59106,1.5 -0.31658,0.825 -0.41982,1.5 -0.22943,1.5 0.19039,0 0.90637,-0.675 1.59106,-1.5 z m -6,-1.87756 c 0,-0.20765 0.7875,-0.99515 1.75,-1.75 1.58606,-1.24387 1.62143,-1.2085 0.37755,0.37756 -1.30636,1.66575 -2.12755,2.19548 -2.12755,1.37244 z m 4.5,-2.62244 c -0.33992,-0.55 -0.14148,-1 0.44098,-1 0.58246,0 1.05902,0.45 1.05902,1 0,0.55 -0.19844,1 -0.44098,1 -0.24254,0 -0.7191,-0.45 -1.05902,-1 z m 2.5,0 c 0,-0.55 0.675,-1 1.5,-1 0.825,0 1.5,0.45 1.5,1 0,0.55 -0.675,1 -1.5,1 -0.825,0 -1.5,-0.45 -1.5,-1 z"
         id="path3090"
         style="fill:#8c8c8c;fill-opacity:1" />
      <path
         d="m 368.39537,384.05687 c -1.78788,-2.86285 -1.52986,-3.87163 0.31615,-1.23608 0.85619,1.22238 2.18067,2.22251 2.9433,2.22251 0.76263,0 2.08711,-1.00013 2.9433,-2.22251 0.85618,-1.22238 1.5567,-1.74212 1.5567,-1.15498 0,1.48664 -3.36019,4.37749 -5.08819,4.37749 -0.7869,0 -1.98896,-0.89389 -2.67126,-1.98643 z m 16.21683,0.12351 c -5.51869,-3.36541 -8.45738,-7.80034 -8.45738,-12.76346 0,-2.46012 0.68656,-5.80059 1.52568,-7.42328 0.83912,-1.62269 1.21938,-2.95034 0.84501,-2.95034 -0.37437,0 0.12033,-0.88509 1.09932,-1.96686 0.979,-1.08178 1.77999,-3.11499 1.77999,-4.51824 0,-1.40326 0.3886,-2.79154 0.86355,-3.08508 0.47495,-0.29353 0.57804,0.21032 0.22909,1.11967 -0.47591,1.24018 -0.16067,1.55648 1.26145,1.26568 1.25015,-0.25563 1.77661,-1.05509 1.54564,-2.34715 -0.34458,-1.92769 -0.3162,-1.92864 1.75,-0.0588 1.15515,1.04539 2.10027,1.59959 2.10027,1.23154 0,-0.99277 8.0096,4.28766 11.75,7.74633 1.7875,1.65286 3.25,3.40145 3.25,3.88576 0,0.48431 -1.1786,-0.52013 -2.61912,-2.23208 -4.11404,-4.88927 -13.32636,-8.76644 -17.25102,-7.2604 -1.10249,0.42306 -0.17629,1.01708 2.87134,1.8415 3.54185,0.95812 3.86066,1.19524 1.4988,1.11471 -4.04923,-0.13805 -6.9074,1.56847 -9.41062,5.61876 -5.26279,8.51538 -0.15219,19.229 10.08909,21.15028 3.86575,0.72522 6.68056,-0.29482 10.70871,-3.88062 1.61938,-1.44156 2.23764,-1.64259 1.92225,-0.62504 -0.67791,2.18719 -7.82283,5.96504 -11.30943,5.97981 -1.65,0.007 -4.36918,-0.82224 -6.04262,-1.84273 z m -2.95738,-25.13708 c 0.99549,-1.1 1.58497,-2 1.30997,-2 -0.275,0 -1.31448,0.9 -2.30997,2 -0.99549,1.1 -1.58498,2 -1.30998,2 0.275,0 1.31449,-0.9 2.30998,-2 z m -11,22 c -0.33992,-0.55 -0.14148,-1 0.44098,-1 0.58246,0 1.05902,0.45 1.05902,1 0,0.55 -0.19844,1 -0.44098,1 -0.24254,0 -0.7191,-0.45 -1.05902,-1 z m -3.5,-1.94098 c 0,-0.51754 0.44485,-1.21592 0.98855,-1.55194 0.56686,-0.35034 0.7345,0.0511 0.39301,0.94098 -0.66479,1.73242 -1.38156,2.04939 -1.38156,0.61096 z m 8,0.19098 c 0,-0.59583 -1.2375,-1.53531 -2.75,-2.08772 -1.5125,-0.55241 -2.04851,-1.03991 -1.19113,-1.08333 2.07496,-0.10509 5.63733,2.55818 4.68956,3.50596 -0.41164,0.41163 -0.74843,0.26092 -0.74843,-0.33491 z m 12.45888,-5.31653 c -0.36253,-0.58659 -0.44468,-1.281 -0.18255,-1.54313 0.26212,-0.26213 0.74306,0.21781 1.06875,1.06653 0.67618,1.76211 0.0998,2.07206 -0.8862,0.4766 z m 2.16941,-0.72588 c -0.26935,-0.43583 0.38882,-0.8586 1.4626,-0.93948 1.07378,-0.0809 1.69105,0.2757 1.37171,0.79241 -0.70857,1.14648 -2.16978,1.22229 -2.83431,0.14707 z m 2.10955,-2.80308 c -0.39627,-0.39627 -0.16189,-1.39807 0.52084,-2.22622 1.08202,-1.3125 0.95258,-1.35188 -1.00868,-0.30683 -1.2375,0.6594 -2.25,0.78122 -2.25,0.27071 0,-1.75623 3.16583,-2.13942 5.30376,-0.64196 1.6926,1.18554 1.7978,1.49979 0.50208,1.49979 -0.90155,0 -1.79855,0.47812 -1.99334,1.0625 -0.19479,0.58437 -0.67839,0.73828 -1.07466,0.34201 z m 12.42005,-2.40451 c 0,-1.375 0.22698,-1.9375 0.50439,-1.25 0.27741,0.6875 0.27741,1.8125 0,2.5 -0.27741,0.6875 -0.50439,0.125 -0.50439,-1.25 z m -12.15789,-5.44098 c 0,-0.79254 0.40803,-1.69317 0.90674,-2.00138 0.49871,-0.30822 0.67122,0.34022 0.38337,1.44098 -0.61061,2.33499 -1.29011,2.63015 -1.29011,0.5604 z m 0.8125,-10.24213 c 0.72187,-0.28888 1.58437,-0.25335 1.91667,0.079 0.33229,0.33229 -0.25834,0.56864 -1.3125,0.52522 -1.16495,-0.048 -1.4019,-0.28495 -0.60417,-0.60417 z m -3.8125,-2.12576 c 0,-0.44488 0.64471,-1.68238 1.43268,-2.75 1.07332,-1.45424 1.72225,-1.65591 2.58713,-0.804 0.87217,0.85908 0.85085,1.32477 -0.0872,1.90451 -0.80038,0.49466 -0.98806,0.35708 -0.52811,-0.38713 0.39244,-0.63498 0.23697,-1.15451 -0.34549,-1.15451 -0.97104,0 -1.47219,1.38327 -1.17744,3.25 0.0651,0.4125 -0.33158,0.75 -0.88158,0.75 -0.55,0 -1,-0.36399 -1,-0.80887 z m -3,-3.56869 c 0,-0.20765 0.7875,-0.99515 1.75,-1.75 1.58606,-1.24387 1.62143,-1.2085 0.37755,0.37756 -1.30636,1.66575 -2.12755,2.19548 -2.12755,1.37244 z m 7,-2.62244 c 0,-0.55 0.675,-1 1.5,-1 0.825,0 1.5,0.45 1.5,1 0,0.55 -0.675,1 -1.5,1 -0.825,0 -1.5,-0.45 -1.5,-1 z"
         id="path3088"
         style="fill:#767676;fill-opacity:1" />
      <path
         d="m 368.80981,384.21456 c -0.91025,-1.00581 -1.64131,-2.24331 -1.62458,-2.75 0.0167,-0.50669 0.50516,-0.10504 1.0854,0.89256 0.58025,0.9976 2.02907,2.20657 3.21959,2.68661 1.4653,0.59083 1.64931,0.89327 0.56959,0.93618 -0.87726,0.0349 -2.33976,-0.75954 -3.25,-1.76535 z m 20.10667,1.12148 c 1.24391,-0.23919 3.04391,-0.23011 4,0.0202 0.95609,0.25029 -0.0617,0.446 -2.26166,0.4349 -2.2,-0.0111 -2.98225,-0.21589 -1.73834,-0.45508 z m 6.97167,-1.41683 c 0.67834,-0.68342 1.48524,-0.99067 1.79313,-0.68278 0.30789,0.30788 -0.24711,0.86705 -1.23333,1.24258 -1.4252,0.54268 -1.54006,0.42782 -0.5598,-0.5598 z m -21.16904,-1.16904 c 0.37553,-0.98622 0.93469,-1.54122 1.24258,-1.23333 0.30789,0.30789 6.4e-4,1.11479 -0.68278,1.79313 -0.98762,0.98026 -1.10248,0.8654 -0.5598,-0.5598 z m 5.19412,-2.45687 c -1.43867,-1.5125 -2.87555,-4.1 -3.19307,-5.75 l -0.5773,-3 1.13074,3 c 0.6219,1.65 2.28379,4.2375 3.69307,5.75 1.40928,1.5125 2.33733,2.75 2.06233,2.75 -0.275,0 -1.67709,-1.2375 -3.11577,-2.75 z m 9.84289,-7.08609 c -0.25451,-0.41181 0.40608,-0.81419 1.46798,-0.89417 2.29656,-0.173 2.4986,0.29836 0.46274,1.0796 -0.80738,0.30982 -1.67621,0.22638 -1.93072,-0.18543 z m -13.44341,-4.16391 c 0,-1.375 0.22698,-1.9375 0.50439,-1.25 0.27741,0.6875 0.27741,1.8125 0,2.5 -0.27741,0.6875 -0.50439,0.125 -0.50439,-1.25 z m 16.61056,-0.16845 c 0.5811,-0.5811 1.64682,-0.85979 2.36826,-0.61931 0.74895,0.24964 0.29565,0.70294 -1.05655,1.05655 -1.66335,0.43497 -2.05378,0.30483 -1.31171,-0.43724 z m -13.34413,-7.97578 c 0.15312,-0.74567 0.73616,-2.48077 1.29564,-3.85577 0.55948,-1.375 0.76571,-3.16026 0.45829,-3.96724 -0.4913,-1.28966 -0.36595,-1.28966 1.03567,0 0.87704,0.80698 1.5252,1.91724 1.44035,2.46724 -0.0849,0.55 0.52073,0.85536 1.34573,0.67857 0.91235,-0.1955 1.10823,0.006 0.5,0.51498 -0.55,0.46003 -2.20467,1.88977 -3.67704,3.1772 -1.54143,1.34782 -2.55894,1.76567 -2.39864,0.98502 z m 2.70323,-2.60577 c 1.24388,-1.58606 1.20851,-1.62143 -0.37755,-0.37755 -0.9625,0.75484 -1.75,1.54234 -1.75,1.75 0,0.82303 0.82119,0.2933 2.12755,-1.37245 z m 4.87245,-4.52182 c 0,-0.46542 -0.375,-0.61445 -0.83333,-0.33119 -0.45834,0.28327 -0.83334,-0.0728 -0.83334,-0.7912 0,-1.01928 0.62245,-1.07129 2.83334,-0.23678 3.27756,1.23714 3.75105,2.57582 0.83333,2.35604 -1.1,-0.0829 -2,-0.53145 -2,-0.99687 z m -1,-7.10574 c 0,-0.20765 0.7875,-0.99515 1.75,-1.75 1.58606,-1.24387 1.62143,-1.2085 0.37755,0.37756 -1.30636,1.66575 -2.12755,2.19548 -2.12755,1.37244 z m 7,-2.62244 c 0,-0.55 0.675,-1 1.5,-1 0.825,0 1.5,0.45 1.5,1 0,0.55 -0.675,1 -1.5,1 -0.825,0 -1.5,-0.45 -1.5,-1 z"
         id="path3086"
         style="fill:#606060;fill-opacity:1" />
      <path
         d="m 369.02726,384.2933 c -1.19261,-1.5207 -1.1759,-1.60381 0.12756,-0.63427 0.825,0.61365 2.175,1.36562 3,1.67105 1.25475,0.46453 1.23389,0.56823 -0.12756,0.63427 -0.89515,0.0434 -2.24515,-0.70855 -3,-1.67105 z m 7.69185,-8.95687 c -0.54268,-1.4252 -0.42782,-1.54006 0.5598,-0.5598 0.68342,0.67834 0.99067,1.48524 0.68278,1.79313 -0.30789,0.30789 -0.86705,-0.24711 -1.24258,-1.23333 z m 2.81733,-14.68749 c 0.11332,-0.77213 0.74491,-2.05318 1.40353,-2.84677 0.65863,-0.79359 0.8639,-1.79994 0.45617,-2.23633 -0.40772,-0.4364 0.27118,-0.26666 1.50868,0.37719 1.2375,0.64385 2.25,1.40636 2.25,1.69447 0,0.28811 -0.46971,0.23354 -1.04381,-0.12127 -1.24911,-0.772 -4.15047,1.4037 -3.42887,2.57128 0.27792,0.44968 0.0875,1.07583 -0.42322,1.39145 -0.51069,0.31563 -0.83581,-0.0579 -0.72248,-0.83002 z m 6.49082,-8.35564 c -1.24387,-1.58606 -1.2085,-1.62143 0.37756,-0.37755 0.9625,0.75484 1.75,1.54234 1.75,1.75 0,0.82303 -0.82119,0.2933 -2.12756,-1.37245 z"
         id="path3084"
         style="fill:#494949;fill-opacity:1" />
      <path
         d="m 380.65482,358.0433 c 0.99549,-1.1 2.03497,-2 2.30997,-2 0.275,0 -0.31448,0.9 -1.30997,2 -0.99549,1.1 -2.03498,2 -2.30998,2 -0.275,0 0.31449,-0.9 1.30998,-2 z"
         id="path3082"
         style="fill:#333333;fill-opacity:1" />
    </g>
  </g>
</svg>
